<?xml version="1.0" encoding="UTF-8"?>
<svg id="Layer_1" data-name="Layer 1" xmlns="http://www.w3.org/2000/svg" viewBox="0 0 76.12 113.81">
  <defs>
    <style>
      .cls-1 {
        fill: #fc0;
      }

      .cls-2 {
        fill: #fff;
      }

      .cls-3 {
        fill: #27b0ff;
      }
    </style>
  </defs>
  <circle class="cls-2" cx="36.31" cy="49.53" r="19.75"/>
  <path class="cls-3" d="M36.31,13.09C15.67,13.09,0,31.41,0,50.14c0,14.93,36.31,63.67,36.31,63.67,0,0,36.3-48.74,36.3-63.67,0-18.72-15.67-37.04-36.3-37.04ZM36.31,66.6c-9.19,0-16.64-7.45-16.64-16.64s7.45-16.64,16.64-16.64,16.64,7.45,16.64,16.64-7.45,16.64-16.64,16.64Z"/>
  <path class="cls-1" d="M57.95,26.65l11.24,8.18-4.3-13.2,11.24-8h-13.78L57.95,0l-4.39,13.63h-13.78l11.24,8-4.3,13.2,11.24-8.18Z"/>
</svg>