<?xml version="1.0" encoding="UTF-8"?>
<svg id="Layer_1" data-name="Layer 1" xmlns="http://www.w3.org/2000/svg" viewBox="0 0 76.12 113.81">
  <defs>
    <style>
      .cls-1 {
        fill: #fc0;
      }

      .cls-2 {
        fill: #fff;
      }

      .cls-3 {
        fill: #27b0ff;
      }
    </style>
  </defs>
  <circle class="cls-2" cx="36.31" cy="49.53" r="19.75"/>
  <path class="cls-3" d="M36.31,13.09C15.67,13.09,0,31.41,0,50.14c0,14.93,36.31,63.67,36.31,63.67,0,0,36.3-48.74,36.3-63.67,0-18.72-15.67-37.04-36.3-37.04ZM36.31,66.6c-9.19,0-16.64-7.45-16.64-16.64s7.45-16.64,16.64-16.64,16.64,7.45,16.64,16.64-7.45,16.64-16.64,16.64Z"/>
  <path class="cls-1" d="M57.95,26.65l11.24,8.18-4.3-13.2,11.24-8h-13.78L57.95,0l-4.39,13.63h-13.78l11.24,8-4.3,13.2,11.24-8.18Z"/>
  <path class="cls-2" d="M31.47,71.58v6.26l-.28.15-.64-.45-.16-5.82c-.03-.42-.49-.38-.8-.32-.11.23-.14.47-.16.72-.13,1.8-.16,5.04,0,6.81.08.88.88,1.49,1.51,2.02l.12.29c-.01,1.72-.05,3.45-.13,5.17-.14,3.01-.58,6.13-.68,9.11-.05,1.3-.2,2.82,1.49,3,1.93.21,1.95-1.5,1.91-2.88-.05-1.53-.33-3.21-.41-4.76-.17-3.13-.26-6.26-.42-9.39.1-.79,1.77-1.6,1.78-2.85.02-2.07.02-4.46-.13-6.54-.05-.74-.27-1.08-.94-.52l-.15,6.08-.76.36c-.45-.41-.08-1.05-.06-1.55.03-.8.12-4.22-.08-4.71-.1-.24-.2-.38-.45-.47l-.56.28ZM41.63,72.1c-1.86-1.9-3.57-.11-4.33,1.76-.87,2.14-1.04,5.03.84,6.69.25.22.87.42.94.7l-.8,15.89c.27,1.57,2.46,1.86,3.25.52.51-.86.07-2.75.02-3.79-.2-4.22-.37-8.44-.64-12.66,3.23-1.51,2.9-6.91.72-9.13Z"/>
</svg>