<?xml version="1.0" encoding="UTF-8"?>
<svg id="Layer_1" data-name="Layer 1" xmlns="http://www.w3.org/2000/svg" viewBox="0 0 72.61 100.72">
  <defs>
    <style>
      .cls-1 {
        fill: #fff;
      }

      .cls-2 {
        fill: #ce1313;
      }
    </style>
  </defs>
  <path class="cls-2" d="M36.31,0C15.67,0,0,18.32,0,37.04c0,14.93,36.31,63.67,36.31,63.67,0,0,36.3-48.74,36.3-63.67C72.61,18.32,56.94,0,36.31,0Z"/>
  <g>
    <path class="cls-1" d="M56.57,18.4H16.54c-1.84,0-3.33,1.49-3.33,3.33v26.65c0,1.84,1.5,3.33,3.33,3.33h40.04c1.84,0,3.33-1.49,3.33-3.33v-26.65c0-1.84-1.49-3.33-3.33-3.33ZM30.12,47.69c-6.97,0-12.63-5.65-12.63-12.63s5.65-12.63,12.63-12.63,12.63,5.65,12.63,12.63-5.65,12.63-12.63,12.63ZM54.83,25.48h-4.05c-1.21,0-2.19-.98-2.19-2.18s.98-2.19,2.19-2.19h4.05c1.2,0,2.19.98,2.19,2.19s-.98,2.18-2.19,2.18Z"/>
    <rect class="cls-1" x="17.89" y="13.86" width="9.58" height="3.48"/>
    <path class="cls-1" d="M36.01,35.06c0,3.33-2.7,6.03-6.02,6.03s-6.02-2.69-6.02-6.03,2.69-6.02,6.02-6.02,6.02,2.7,6.02,6.02Z"/>
  </g>
</svg>
